<?xml version="1.0" encoding="UTF-8" standalone="no"?>
<svg
   xmlns:dc="http://purl.org/dc/elements/1.1/"
   xmlns:cc="http://creativecommons.org/ns#"
   xmlns:rdf="http://www.w3.org/1999/02/22-rdf-syntax-ns#"
   xmlns:svg="http://www.w3.org/2000/svg"
   xmlns="http://www.w3.org/2000/svg"
   xmlns:sodipodi="http://sodipodi.sourceforge.net/DTD/sodipodi-0.dtd"
   xmlns:inkscape="http://www.inkscape.org/namespaces/inkscape"
   viewBox="0 0 109 48"
   version="1.1"
   id="svg905"
   sodipodi:docname="index.svg"
   width="109"
   height="48"
   inkscape:version="0.92.4 5da689c313, 2019-01-14">
  <metadata
     id="metadata909">
    <rdf:RDF>
      <cc:Work
         rdf:about="">
        <dc:format>image/svg+xml</dc:format>
        <dc:type
           rdf:resource="http://purl.org/dc/dcmitype/StillImage" />
        <dc:title>Logo</dc:title>
      </cc:Work>
    </rdf:RDF>
  </metadata>
  <sodipodi:namedview
     pagecolor="#ffffff"
     bordercolor="#666666"
     borderopacity="1"
     objecttolerance="10"
     gridtolerance="10"
     guidetolerance="10"
     inkscape:pageopacity="0"
     inkscape:pageshadow="2"
     inkscape:window-width="1600"
     inkscape:window-height="826"
     id="namedview907"
     showgrid="false"
     inkscape:snap-global="false"
     inkscape:zoom="4.8211009"
     inkscape:cx="45.588458"
     inkscape:cy="13.523367"
     inkscape:window-x="0"
     inkscape:window-y="0"
     inkscape:window-maximized="1"
     inkscape:current-layer="g1081" />
  <title
     id="title882">Logo</title>
  <defs
     id="defs903">
    <path
       id="b"
       d="M 22.735,23.171 C 23.018,23.494 22.788,24 22.359,24 h -5.907 c -0.285,0 -0.556,-0.121 -0.745,-0.333 L 6.293,13.141 v 10.36 c 0,0.276 -0.224,0.5 -0.5,0.5 H 0.5 c -0.276,0 -0.5,-0.224 -0.5,-0.5 v -23 c 0,-0.276 0.224,-0.5 0.5,-0.5 h 5.293 c 0.276,0 0.5,0.224 0.5,0.5 v 9.815 l 9.141,-9.99 c 0.19,-0.207 0.457,-0.325 0.738,-0.325 h 5.762 c 0.437,0 0.664,0.521 0.366,0.841 l -9.851,10.563 10.287,11.767 z"
       inkscape:connector-curvature="0" />
    <path
       id="c"
       d="m 45.991,24 c -0.199,0 -0.38,-0.118 -0.459,-0.301 L 43.508,19.03 h -10.67 l -2.024,4.669 C 30.735,23.882 30.555,24 30.355,24 h -5.212 c -0.366,0 -0.608,-0.381 -0.453,-0.712 l 10.782,-23 C 35.554,0.112 35.731,0 35.925,0 h 4.358 c 0.194,0 0.37,0.112 0.453,0.287 l 10.815,23 C 51.707,23.619 51.465,24 51.099,24 Z M 34.856,14.332 h 6.635 l -3.317,-7.694 -3.317,7.694 z"
       inkscape:connector-curvature="0" />
    <path
       id="d"
       d="m 55.525,24 c -0.276,0 -0.5,-0.224 -0.5,-0.5 v -23 c 0,-0.276 0.224,-0.5 0.5,-0.5 h 5.293 c 0.276,0 0.5,0.224 0.5,0.5 v 18.428 h 9.759 c 0.276,0 0.5,0.224 0.5,0.5 V 23.5 c 0,0.276 -0.224,0.5 -0.5,0.5 z"
       inkscape:connector-curvature="0" />
    <path
       id="e"
       d="m 75.279,0.5 c 0,-0.276 0.224,-0.5 0.5,-0.5 h 9.315 c 2.667,0 4.959,0.477 6.874,1.43 1.938,0.953 3.42,2.338 4.446,4.153 1.026,1.793 1.539,3.926 1.539,6.4 0,2.496 -0.513,4.652 -1.539,6.468 -1.003,1.793 -2.474,3.166 -4.412,4.119 C 90.087,23.523 87.784,24 85.094,24 h -9.315 c -0.276,0 -0.5,-0.224 -0.5,-0.5 z m 9.37,18.462 c 2.371,0 4.138,-0.579 5.301,-1.736 1.163,-1.157 1.744,-2.905 1.744,-5.242 C 91.694,9.646 91.113,7.91 89.95,6.775 88.787,5.618 87.02,5.039 84.649,5.039 h -3.078 v 13.923 z"
       inkscape:connector-curvature="0" />
    <path
       id="f"
       d="m 102.913,24 c -0.276,0 -0.5,-0.224 -0.5,-0.5 v -23 c 0,-0.276 0.224,-0.5 0.5,-0.5 h 5.293 c 0.276,0 0.5,0.224 0.5,0.5 v 23 c 0,0.276 -0.224,0.5 -0.5,0.5 z"
       inkscape:connector-curvature="0" />
  </defs>
  <g
     transform="matrix(0.52216227,0,0,0.52216227,1.2590316,25.805039)"
     id="g1028"
     style="font-style:normal;font-weight:normal;font-size:40px;line-height:1.25;font-family:sans-serif;letter-spacing:0px;word-spacing:0px;fill:#000000;fill-opacity:1;stroke:none"
     aria-label="SEKEDAR">
    <g
       id="g1081"
       transform="matrix(1.1409228,0,0,1.1409228,-2.4119051,-1.4850018)">
      <g
         transform="matrix(1.0776286,0,0,1.0776286,-14.034883,-26.839403)"
         id="text913"
         style="font-style:normal;font-weight:normal;font-size:40px;line-height:1.25;font-family:sans-serif;letter-spacing:0px;word-spacing:0px;fill:#00aa44;fill-opacity:1;stroke:none"
         aria-label="SEKEDAR">
        <path
           inkscape:connector-curvature="0"
           id="path923"
           style="font-style:normal;font-variant:normal;font-weight:bold;font-stretch:normal;font-family:'Droid Sans';-inkscape-font-specification:'Droid Sans Bold';fill:#00aa44;stroke-width:1.08447719"
           d="m 33.361093,12.661765 q 0,2.075758 -0.72016,3.749071 -0.69898,1.652134 -2.075757,2.838281 -1.355597,1.164966 -3.346628,1.800401 -1.969852,0.635436 -4.532776,0.635436 -2.245207,0 -4.342145,-0.465986 -2.075758,-0.465986 -3.854978,-1.397959 v -6.100184 q 1.016697,0.487167 2.054577,0.953154 1.037878,0.444805 2.096937,0.804885 1.080241,0.360081 2.139302,0.571892 1.08024,0.211813 2.1393,0.211813 1.080241,0 1.842764,-0.232994 0.783704,-0.254174 1.24969,-0.677798 0.487168,-0.444805 0.69898,-1.037878 0.232992,-0.614256 0.232992,-1.334416 0,-0.868428 -0.381261,-1.525046 -0.36008,-0.677798 -1.037878,-1.24969 Q 24.867435,9.6116733 23.914281,9.0609623 22.982309,8.5102512 21.817343,7.8959965 20.843007,7.3876479 19.63568,6.6674873 18.428352,5.9473267 17.348111,4.8882669 16.289051,3.8080261 15.56889,2.3041612 14.84873,0.77911522 14.84873,-1.3390042 q 0,-2.0757571 0.677798,-3.706709 0.698979,-1.6521332 1.969851,-2.7747365 1.270872,-1.1437845 3.071273,-1.736858 1.821583,-0.5930733 4.066789,-0.5930733 1.122603,0 2.181664,0.148269 1.080241,0.1482676 2.118119,0.4236232 1.059059,0.2753555 2.11812,0.6777982 1.059059,0.4024427 2.181663,0.9319726 l -2.11812,5.1046678 q -0.953154,-0.4448051 -1.77922,-0.7837042 -0.826067,-0.3388991 -1.609771,-0.5718923 -0.783705,-0.2329931 -1.546228,-0.3388991 -0.741341,-0.1270871 -1.503864,-0.1270871 -1.652133,0 -2.541743,0.8896101 -0.86843,0.868429 -0.86843,2.3299314 0,0.78370425 0.254175,1.39795885 0.275356,0.59307344 0.847247,1.12260335 0.593074,0.5295298 1.503865,1.0802409 0.931973,0.550711 2.245208,1.2496905 1.588588,0.8472478 2.923004,1.7368579 1.334415,0.8684289 2.287569,1.9486699 0.974335,1.0590597 1.503865,2.4146562 0.529529,1.3555968 0.529529,3.1771788 z" />
        <path
           inkscape:connector-curvature="0"
           id="path925"
           style="font-style:normal;font-variant:normal;font-weight:bold;font-stretch:normal;font-family:'Droid Sans';-inkscape-font-specification:'Droid Sans Bold';fill:#00aa44;stroke-width:1.08447719"
           d="M 54.090368,21.261331 H 36.255802 V -9.705576 h 17.834566 v 5.3800234 H 42.821972 V 2.4736108 H 53.306663 V 7.8536341 H 42.821972 v 7.9853109 h 11.268396 z" />
        <path
           inkscape:connector-curvature="0"
           id="path927"
           style="font-style:normal;font-variant:normal;font-weight:bold;font-stretch:normal;font-family:'Droid Sans';-inkscape-font-specification:'Droid Sans Bold';fill:#00aa44;stroke-width:1.08447719"
           d="m 80.580926,21.261331 h -7.45578 L 66.008264,8.3831641 63.551246,10.204747 v 11.056584 h -6.56617 V -9.705576 h 6.56617 V 5.2059849 L 66.135352,0.82147761 73.20987,-9.705576 h 7.286331 L 70.604584,4.2528311 Z" />
        <path
           inkscape:connector-curvature="0"
           id="path929"
           style="font-style:normal;font-variant:normal;font-weight:bold;font-stretch:normal;font-family:'Droid Sans';-inkscape-font-specification:'Droid Sans Bold';fill:#00aa44;stroke-width:1.08447719"
           d="M 101.31019,21.261331 H 83.475632 V -9.705576 h 17.834558 v 5.3800234 H 90.041803 V 2.4736108 H 100.5265 V 7.8536341 H 90.041803 v 7.9853109 h 11.268387 z" />
        <path
           inkscape:connector-curvature="0"
           id="path931"
           style="font-style:normal;font-variant:normal;font-weight:bold;font-stretch:normal;font-family:'Droid Sans';-inkscape-font-specification:'Droid Sans Bold';fill:#00aa44;stroke-width:1.07580054"
           d="m 127.96917,5.3598337 q 0,3.8871699 -1.0716,6.8288123 -1.05058,2.92063 -3.0677,4.895733 -1.99612,1.95409 -4.91675,2.941642 -2.89961,0.987551 -6.6187,0.987551 h -8.08951 V -9.705576 h 8.99302 q 3.38289,0 6.0934,0.9665395 2.73153,0.9665396 4.66461,2.8786069 1.93307,1.8910556 2.96265,4.7066273 1.05058,2.8155717 1.05058,6.513636 z m -6.59768,0.1680939 q 0,-2.563431 -0.52529,-4.4124632 -0.50428,-1.87004378 -1.49184,-3.0887241 -0.96653,-1.2186802 -2.39533,-1.8070087 -1.40779,-0.5883284 -3.23581,-0.5883284 h -3.00467 V 15.63457 h 2.39533 q 4.1183,0 6.17745,-2.521408 2.08016,-2.521408 2.08016,-7.5852344 z" />
        <path
           inkscape:connector-curvature="0"
           id="path933"
           style="font-style:normal;font-variant:normal;font-weight:bold;font-stretch:normal;font-family:'Droid Sans';-inkscape-font-specification:'Droid Sans Bold';fill:#00aa44;stroke-width:1.08447719"
           d="m 148.70996,21.261331 -2.11811,-7.371056 h -10.67532 l -2.13931,7.371056 h -6.62971 l 10.06106,-31.0939941 h 8.02768 L 155.33968,21.261331 Z M 145.0668,8.3831641 143.07577,1.6051818 q -0.12709,-0.3812615 -0.38126,-1.24969047 -0.25418,-0.86842892 -0.55071,-1.90630753 -0.27536,-1.0590597 -0.52954,-2.1181194 -0.25417,-1.0590597 -0.36008,-1.8004015 -0.0847,0.4659863 -0.23299,1.1014221 -0.12709,0.6354359 -0.31772,1.3555965 -0.16945,0.6989793 -0.36007,1.4191399 -0.19063,0.72016065 -0.36008,1.35559648 -0.16945,0.63543584 -0.31772,1.12260332 -0.12709,0.4871675 -0.19063,0.7201606 l -1.96986,6.7779823 z" />
        <path
           inkscape:connector-curvature="0"
           id="path935"
           style="font-style:normal;font-variant:normal;font-weight:bold;font-stretch:normal;font-family:'Droid Sans';-inkscape-font-specification:'Droid Sans Bold';fill:#00aa44;stroke-width:1.08447719"
           d="m 164.80056,4.0410192 h 1.77922 q 2.73237,0 3.91852,-1.0802409 1.18615,-1.1014222 1.18615,-3.21954156 0,-2.20284424 -1.27088,-3.13481674 -1.27086,-0.9319726 -3.9397,-0.9319726 h -1.67331 z m 0,5.3376609 V 21.261331 h -6.56618 V -9.705576 h 8.47248 q 5.95193,0 8.7902,2.3087502 2.83828,2.287569 2.83828,6.96861298 0,1.58858952 -0.42362,2.88064242 -0.42363,1.2920528 -1.14378,2.3087502 -0.69898,0.9955162 -1.63096,1.7580392 -0.91079,0.7413417 -1.92749,1.2496904 2.35112,3.7702526 4.21506,6.7356196 0.80488,1.270872 1.54623,2.4782 0.76252,1.207328 1.3556,2.160482 0.59306,0.953154 0.97433,1.525046 l 0.36008,0.593074 h -7.28633 L 167.66002,9.3786801 Z" />
      </g>
      <g
         aria-label="Berbagi"
         transform="matrix(1.9151135,0,0,1.9151135,-2.4111884,-46.982384)"
         style="font-style:normal;font-weight:normal;font-size:26.87697983px;line-height:1.25;font-family:sans-serif;letter-spacing:0px;word-spacing:0px;fill:#0055d4;fill-opacity:1;stroke:none;stroke-width:0.67192459"
         id="text921">
        <path
           d="M 6.3888859,37.17613 Q 6.1201161,37.068622 5.8244694,36.772976 5.5556996,36.477329 5.5019456,36.262313 5.3675607,35.724773 5.2062988,34.945341 5.0450369,34.165909 4.8837751,33.278968 4.7225132,32.392028 4.5612513,31.478211 4.4268664,30.537516 4.2924815,29.70433 4.1580966,28.844267 4.0774657,28.172342 q -0.080631,-0.671924 -0.107508,-1.075079 0,-0.430032 0.2956468,-0.483786 0.6988015,-0.08063 0.9944483,0.510663 0.1343849,0.483786 0.2956468,1.101956 0.1612618,0.618171 0.3225237,1.343849 0.6450475,-0.241893 1.1557101,-0.61817 0.5106627,-0.376278 0.8331864,-0.80631 0.3494008,-0.456909 0.4837857,-0.913817 0.1612618,-0.483786 0.053754,-0.940694 -0.134385,-0.510663 -0.7525555,-0.752556 -0.6181706,-0.241893 -1.397603,-0.241893 -1.0750792,0 -1.9351425,0.403155 -0.8331864,0.376278 -1.5319879,0.940694 -0.3225237,0.241893 -0.6988014,0.161262 -0.4031547,-0.107508 -0.5375396,-0.510662 0,-0.376278 0.1343849,-0.645048 0.1343849,-0.26877 0.3494007,-0.483786 0.8331864,-0.860063 1.9620195,-1.209464 1.1557102,-0.3494 2.4189282,-0.3494 1.0213252,0 1.9620195,0.322523 0.9675713,0.322524 1.6394956,1.15571 0.322524,0.53754 0.322524,1.128834 0.02688,0.591293 -0.161262,1.15571 -0.1881388,0.564416 -0.5375395,1.075079 -0.3225238,0.510663 -0.6719245,0.88694 0.6719245,-0.05375 1.370726,0.134385 0.698801,0.161262 1.236341,0.591294 0.564417,0.403154 0.913817,1.075079 0.349401,0.671924 0.349401,1.612619 0,1.075079 -0.483786,1.962019 -0.456908,0.886941 -1.236341,1.505111 -0.752555,0.618171 -1.7470033,0.967571 -0.9675713,0.349401 -2.0157735,0.349401 -0.4569087,0 -0.7256784,-0.26877 -0.1343849,0 -0.2418929,-0.08063 z M 6.281378,31.531965 q 0.2150159,1.048202 0.4031547,2.177035 0.1881389,1.128833 0.4031547,2.257666 h 0.1075079 q 0.5912936,0 1.2900951,-0.215016 0.7256784,-0.215015 1.343849,-0.61817 0.6181706,-0.430032 1.0213256,-1.021325 0.403154,-0.618171 0.376277,-1.370726 -0.134385,-0.671925 -0.61817,-1.021326 -0.483786,-0.3494 -1.1825873,-0.456908 -0.6719245,-0.107508 -1.5051109,0 -0.8063094,0.08063 -1.6394958,0.26877 z"
           style="font-style:normal;font-variant:normal;font-weight:normal;font-stretch:normal;font-family:'Nanum Pen Script';-inkscape-font-specification:'Nanum Pen Script';fill:#0055d4;stroke-width:0.67192459"
           id="path1083"
           inkscape:connector-curvature="0" />
        <path
           d="m 21.090567,30.59127 q -1.048202,0.618171 -2.257666,0.967572 -1.209464,0.322523 -2.607067,0.322523 0.05375,0.940695 0.53754,1.505111 0.483785,0.53754 1.209464,0.645048 0.430031,0.05375 0.860063,-0.02688 0.456909,-0.08063 0.833187,-0.241893 0.403154,-0.188139 0.725678,-0.403155 0.322524,-0.215016 0.564417,-0.430031 0.241892,-0.215016 0.510662,-0.26877 0.26877,-0.08063 0.403155,-0.02688 0.376278,0.134385 0.26877,0.806309 -0.430032,0.860064 -1.236341,1.478234 -0.80631,0.591294 -1.800758,0.752555 -0.860063,0.161262 -1.773881,-0.08063 -0.913817,-0.241893 -1.639496,-0.940695 -0.61817,-0.61817 -0.940694,-1.451357 -0.322524,-0.833186 -0.403154,-1.720126 -0.08063,-0.833187 0.134384,-1.585742 0.241893,-0.752556 0.725679,-1.316972 0.483785,-0.591294 1.209464,-0.967571 0.725678,-0.376278 1.69325,-0.430032 1.15571,-0.08063 2.096404,0.430032 0.940694,0.510662 1.316972,1.424479 0.215016,0.510663 0.107508,0.886941 -0.08063,0.376278 -0.53754,0.671924 z m -3.090852,-1.827634 q -0.26877,0.05375 -0.591294,0.188139 -0.295647,0.134384 -0.564416,0.3494 -0.241893,0.188139 -0.456909,0.456909 -0.188139,0.241893 -0.215016,0.564416 0.456909,0 0.994448,-0.08063 0.564417,-0.08063 1.07508,-0.188139 0.537539,-0.134385 0.967571,-0.295647 0.456909,-0.161262 0.752555,-0.349401 -0.215016,-0.510662 -0.806309,-0.61817 -0.564417,-0.134385 -1.15571,-0.02688 z"
           style="font-style:normal;font-variant:normal;font-weight:normal;font-stretch:normal;font-family:'Nanum Pen Script';-inkscape-font-specification:'Nanum Pen Script';fill:#0055d4;stroke-width:0.67192459"
           id="path1085"
           inkscape:connector-curvature="0" />
        <path
           d="m 32.056369,27.634803 q -0.483785,0.268769 -1.021325,0.564416 -0.510663,0.295647 -1.048202,0.698802 -0.510663,0.376277 -0.994448,0.913817 -0.456909,0.510662 -0.833187,1.236341 -0.537539,1.021325 -0.725678,2.096404 -0.188139,1.048203 -0.241893,2.069528 0,0.483785 -0.241893,0.994448 -0.215016,0.483786 -0.61817,0.483786 -0.510663,0 -0.833187,-0.510663 -0.295647,-0.537539 -0.403154,-1.021325 -0.456909,-1.908266 -0.752556,-3.762777 -0.295647,-1.881389 -0.510662,-3.735901 0,-0.376277 0.215015,-0.483785 0.241893,-0.107508 0.53754,-0.08063 0.322524,0.02688 0.61817,0.161262 0.295647,0.134385 0.349401,0.430031 0.107508,0.994449 0.26877,2.096405 0.161262,1.075079 0.322524,1.854512 0.107508,-0.913818 0.591293,-1.773881 0.483786,-0.860064 1.182587,-1.558865 0.725679,-0.698801 1.612619,-1.182587 0.913818,-0.483786 1.854512,-0.645048 0.403155,-0.05375 0.671924,0 0.26877,0.05375 0.376278,0.188139 0.107508,0.134385 0.02688,0.430032 -0.05375,0.295647 -0.403155,0.53754 z"
           style="font-style:normal;font-variant:normal;font-weight:normal;font-stretch:normal;font-family:'Nanum Pen Script';-inkscape-font-specification:'Nanum Pen Script';fill:#0055d4;stroke-width:0.67192459"
           id="path1087"
           inkscape:connector-curvature="0" />
        <path
           d="m 35.281588,23.253855 q 0.02688,0.430031 0.02688,1.048202 0.02688,0.618171 0.05375,1.343849 0.02688,0.725678 0.08063,1.478234 0.05375,0.725678 0.161262,1.397603 0.403155,-0.671925 0.913817,-1.021325 0.53754,-0.349401 1.075079,-0.430032 0.833187,-0.107508 1.451357,0.188139 0.618171,0.295647 1.021326,0.833186 0.403154,0.510663 0.591293,1.15571 0.188139,0.618171 0.188139,1.209464 0,1.263218 -0.671924,2.338298 -0.645048,1.075079 -1.531988,1.908265 -0.860064,0.833187 -1.720127,1.397603 -0.833186,0.564417 -1.209464,0.80631 -0.53754,0.215015 -1.048202,0.107507 -0.510663,-0.107507 -0.671925,-0.322523 -0.134385,-0.322524 -0.08063,-0.53754 0.05375,-0.241893 0.215016,-0.430032 0.161262,-0.188138 0.376278,-0.322523 0.241893,-0.161262 0.403155,-0.295647 -0.645048,-2.956468 -0.994449,-5.96669 -0.3494,-3.037098 -0.295647,-6.154828 0,-0.53754 0.215016,-0.618171 0.241893,-0.08063 0.403155,-0.08063 0.376278,0.05375 0.671925,0.295646 0.295646,0.241893 0.376278,0.671925 z m 3.924039,7.122399 q 0,-0.913817 -0.456908,-1.263218 -0.456909,-0.376277 -0.940695,-0.322523 -0.403154,0.05375 -0.725678,0.295646 -0.322524,0.241893 -0.564417,0.591294 -0.241893,0.349401 -0.376277,0.779432 -0.107508,0.430032 -0.08063,0.833187 0.05375,0.671924 0.134385,1.451357 0.107507,0.779432 0.241892,1.397603 0.430032,-0.295647 0.913818,-0.671925 0.483785,-0.403155 0.88694,-0.88694 0.430032,-0.483786 0.698801,-1.021325 0.26877,-0.564417 0.26877,-1.182588 z"
           style="font-style:normal;font-variant:normal;font-weight:normal;font-stretch:normal;font-family:'Nanum Pen Script';-inkscape-font-specification:'Nanum Pen Script';fill:#0055d4;stroke-width:0.67192459"
           id="path1089"
           inkscape:connector-curvature="0" />
        <path
           d="m 48.536745,26.962878 q 0.107508,0.752555 0.161262,1.612619 0.08063,0.833186 0.107508,1.69325 0.05375,0.860063 0.05375,1.666372 0,0.80631 -0.02688,1.451357 0.860064,0.591294 1.021325,1.048202 0.188139,0.456909 0.05375,0.80631 -0.161262,0.483785 -0.591293,0.510662 -0.403155,0 -0.940694,-0.295646 -0.376278,0.268769 -0.860064,0.591293 -0.483785,0.295647 -1.021325,0.591294 -0.53754,0.26877 -1.075079,0.483785 -0.53754,0.215016 -0.994449,0.295647 -0.860063,0.134385 -1.558864,-0.322524 -0.671925,-0.456908 -0.913818,-1.370726 -0.161262,-0.61817 -0.08063,-1.263218 0.08063,-0.671924 0.403155,-1.263218 0.322524,-0.61817 0.860063,-1.101956 0.564417,-0.483785 1.316972,-0.752555 0.188139,-0.08063 0.510663,-0.134385 0.349401,-0.05375 0.698802,-0.02688 0.376277,0 0.752555,0.134385 0.376278,0.134385 0.698801,0.456908 0,-0.456908 -0.02688,-0.994448 0,-0.564416 -0.02688,-1.128833 -0.02688,-0.564417 -0.08063,-1.048202 -0.02688,-0.510663 -0.08063,-0.860064 -0.05375,-0.403154 -0.322524,-0.483785 -0.241893,-0.107508 -0.618171,0.02688 -0.645047,0.215016 -1.505111,0.833186 -0.860063,0.618171 -1.639495,1.316972 -0.241893,0.241893 -0.564417,0.215016 -0.295647,-0.02688 -0.510663,-0.241893 -0.215015,-0.215016 -0.241892,-0.483785 -0.02688,-0.295647 0.215016,-0.618171 0.456908,-0.483786 1.021325,-0.994448 0.564416,-0.510663 1.182587,-0.913818 0.61817,-0.430031 1.263218,-0.698801 0.645047,-0.26877 1.290095,-0.295647 0.940694,-0.02688 1.451357,0.430032 0.510662,0.430032 0.61817,1.128833 z m -3.117729,5.778551 q -0.349401,0.08063 -0.752556,0.3494 -0.376277,0.241893 -0.698801,0.618171 -0.295647,0.349401 -0.456909,0.806309 -0.134385,0.430032 0,0.860064 0.05375,0.161262 0.215016,0.241893 0.188139,0.08063 0.403155,0.02688 0.645047,-0.134385 1.451357,-0.510663 0.833186,-0.403155 1.316972,-0.860063 0,-0.161262 -0.161262,-0.403155 -0.161262,-0.26877 -0.376278,-0.510663 -0.215016,-0.26877 -0.483786,-0.456908 -0.241892,-0.188139 -0.456908,-0.161262 z"
           style="font-style:normal;font-variant:normal;font-weight:normal;font-stretch:normal;font-family:'Nanum Pen Script';-inkscape-font-specification:'Nanum Pen Script';fill:#0055d4;stroke-width:0.67192459"
           id="path1091"
           inkscape:connector-curvature="0" />
        <path
           d="m 56.176125,29.489314 q 0.215016,0.295647 0.403155,0.752556 0.215015,0.430031 0.322523,0.88694 0.161262,0.725678 0.349401,1.585742 0.215016,0.833186 0.403155,1.747003 0.215016,0.913818 0.376278,1.854512 0.188138,0.940694 0.322523,1.800758 0.161262,1.182587 -0.188139,2.257666 -0.322523,1.101956 -1.101956,1.962019 -0.779432,0.860064 -1.935142,1.370726 -1.15571,0.510663 -2.607067,0.564417 -0.322524,-0.02688 -0.671925,-0.322524 -0.349401,-0.26877 -0.349401,-0.564416 -0.02688,-0.295647 0.26877,-0.483786 0.322524,-0.161262 0.645048,-0.215016 0.564416,-0.05375 1.15571,-0.241893 0.61817,-0.161261 1.15571,-0.483785 0.53754,-0.322524 0.967571,-0.779433 0.456909,-0.456908 0.698802,-1.075079 0.188139,-0.483785 0.188139,-1.182587 0,-0.725678 -0.107508,-1.42448 -0.08063,-0.698801 -0.241893,-1.316972 -0.134385,-0.645047 -0.241893,-0.967571 -0.188139,0.188139 -0.483786,0.403155 -0.268769,0.215015 -0.61817,0.403154 -0.349401,0.188139 -0.779433,0.295647 -0.403154,0.107508 -0.833186,0.08063 -0.456909,-0.02688 -0.860063,-0.322524 -0.376278,-0.295647 -0.671925,-0.752555 -0.295647,-0.483786 -0.483785,-1.101956 -0.161262,-0.618171 -0.161262,-1.290095 0.05375,-1.612619 0.806309,-2.84896 0.779433,-1.263218 2.472682,-1.96202 0.134385,-0.02688 0.349401,-0.05375 0.241893,-0.02688 0.483786,0 0.241892,0 0.456908,0.05375 0.241893,0.05375 0.403155,0.161262 0.295647,0.215016 0.295647,0.618171 0,0.403154 -0.188139,0.591293 z m -3.3865,3.682146 q 0,0.295647 0.05375,0.671925 0.05375,0.349401 0.349401,0.510662 0.322524,0.188139 0.779433,0.05375 0.483785,-0.134384 0.88694,-0.456908 0.376278,-0.295647 0.483786,-0.645048 0.134384,-0.376277 0,-0.994448 -0.134385,-0.618171 -0.295647,-1.290095 -0.161262,-0.671925 -0.215016,-1.209464 -0.322524,0.161262 -0.698802,0.456909 -0.3494,0.295646 -0.645047,0.752555 -0.295647,0.430032 -0.510663,0.967571 -0.188139,0.53754 -0.188139,1.182587 z"
           style="letter-spacing:-3.0357163px;fill:#0055d4;stroke-width:0.67192459"
           id="path1093"
           inkscape:connector-curvature="0" />
        <path
           d="m 61.875397,25.941553 q -0.05375,0.26877 -0.376277,0.295647 -0.322524,0.02688 -0.53754,0.02688 -0.671925,0.02688 -1.397603,0.134384 -0.698801,0.107508 -1.478234,0.322524 -0.322524,0.107508 -0.698801,-0.08063 -0.376278,-0.188139 -0.456909,-0.752555 0,-0.215016 0.161262,-0.349401 0.161262,-0.134385 0.376278,-0.241893 0.3494,-0.161262 0.833186,-0.26877 0.483786,-0.134384 0.967571,-0.188138 0.510663,-0.05375 0.967571,-0.02688 0.456909,0 0.752556,0.08063 0.430032,0.134384 0.671924,0.403154 0.26877,0.26877 0.215016,0.645048 z m -0.61817,8.950034 q 0.188139,0.430032 0.188139,0.940694 0.02688,0.483786 -0.26877,0.671925 -0.376278,0.241893 -0.80631,-0.02688 -0.430031,-0.26877 -0.645047,-0.725679 -0.295647,-0.564416 -0.456909,-1.370726 -0.161262,-0.833186 -0.241893,-1.639495 -0.08063,-0.80631 -0.107508,-1.505111 0,-0.698802 0,-1.048202 0.02688,-0.376278 0.215016,-0.698802 0.188139,-0.322524 0.483786,-0.376278 0.483786,0.02688 0.779432,0.456909 0.295647,0.403155 0.26877,1.021325 0,0.483786 0.02688,1.075079 0.02688,0.591294 0.107508,1.182588 0.08063,0.591293 0.188139,1.15571 0.107508,0.537539 0.26877,0.88694 z"
           style="font-style:normal;font-variant:normal;font-weight:normal;font-stretch:normal;font-family:'Nanum Pen Script';-inkscape-font-specification:'Nanum Pen Script';fill:#0055d4;stroke-width:0.67192459"
           id="path1095"
           inkscape:connector-curvature="0" />
      </g>
      <path
         inkscape:connector-curvature="0"
         id="path1044"
         d="m 160.62124,1.5275902 v 2.3826712 c 0.0823,0.092033 0.17258,0.176493 0.25061,0.273053 0.78328,0.9476614 1.36218,2.0933455 1.73931,3.4374794 0.3868,1.3344625 0.57977,2.8274932 0.57977,4.4810652 0,1.634235 -0.19297,3.125714 -0.57977,4.469846 -0.37713,1.344132 -0.95603,2.491367 -1.73931,3.4487 -0.0783,0.09574 -0.16811,0.181662 -0.25061,0.273053 v 2.442519 h 4.01725 v -9.863584 c 0,-0.27076 -0.005,-0.57796 -0.015,-0.91641 0,-0.338453 -0.0106,-0.69109 -0.0299,-1.058551 -0.01,-0.36746 -0.0218,-0.737525 -0.0411,-1.1146551 -0.01,-0.3771299 -0.0256,-0.7456437 -0.0449,-1.1034348 -0.0387,-0.8316208 -0.0879,-1.6912731 -0.14587,-2.5809142 h 0.13091 l 4.65687,16.6375491 h 4.1332 l 5.0197,-16.6113657 h 0.11595 c -0.029,0.8799717 -0.0623,1.727488 -0.10099,2.5397699 -0.01,0.3481198 -0.0256,0.7060488 -0.0449,1.0735112 -0.01,0.3674606 -0.0203,0.7306806 -0.0299,1.0884716 -0.01,0.357791 -0.0165,0.694553 -0.0262,1.013664 v 0.856564 10.039385 h 4.18931 V 1.5275902 h -6.11939 l -4.87382,16.2186178 h -0.086 l -4.5858,-16.2186178 z"
         style="font-style:normal;font-variant:normal;font-weight:bold;font-stretch:normal;font-size:29.70630264px;line-height:1.25;font-family:'Droid Sans';-inkscape-font-specification:'Droid Sans Bold';letter-spacing:0px;word-spacing:0px;fill:#241c1c;fill-opacity:1;stroke:none;stroke-width:0.7426576" />
      <path
         id="path1034"
         d="m 140.36202,1.2246135 c -1.60523,0 -3.02636,0.2701574 -4.26412,0.8116787 -1.23777,0.5318519 -2.27825,1.2810118 -3.11954,2.2480138 -0.84129,0.9670021 -1.47996,2.1232711 -1.91512,3.467403 -0.43515,1.3344626 -0.65083,2.804774 -0.65083,4.409997 0,1.634235 0.18768,3.116681 0.56481,4.451143 0.37713,1.334463 0.95604,2.474855 1.73931,3.422519 0.78327,0.947661 1.77457,1.684687 2.97366,2.206867 1.19908,0.522183 2.61866,0.781757 4.2529,0.781757 0.57053,0 1.10026,-0.02271 1.59343,-0.07107 0.50284,-0.03869 0.99243,-0.103722 1.46626,-0.190764 0.47383,-0.08702 0.93696,-0.197521 1.39145,-0.3329 0.19636,-0.05849 0.39657,-0.143883 0.59473,-0.213208 -0.36813,-0.320988 -0.71671,-0.662361 -1.02862,-1.043586 -0.51235,-0.634032 -0.94118,-1.349925 -1.30542,-2.132061 -0.76458,0.152635 -1.52833,0.243129 -2.2929,0.243129 -0.92833,0 -1.73196,-0.154377 -2.40885,-0.463815 -0.66724,-0.319112 -1.21814,-0.780687 -1.65329,-1.380228 -0.42548,-0.609211 -0.74481,-1.353082 -0.95755,-2.233053 -0.20308,-0.879972 -0.30298,-1.887155 -0.30298,-3.018548 0,-1.112051 0.11579,-2.110203 0.34786,-2.9998457 0.23208,-0.8993125 0.56885,-1.6590571 1.01367,-2.2779375 0.45449,-0.6285518 1.01068,-1.1075542 1.66824,-1.4363352 0.66723,-0.3384503 1.43227,-0.508702 2.2929,-0.508702 0.72016,0 1.45408,0.1347474 2.19939,0.3777868 0.38491,-0.8636243 0.84891,-1.6467467 1.41389,-2.3303044 0.28891,-0.3495484 0.61293,-0.6634298 0.95008,-0.9612969 C 144.46645,1.89272 144.0012,1.746028 143.5227,1.6285798 142.46867,1.3578211 141.41605,1.2246116 140.36202,1.2246116 Z"
         style="font-style:normal;font-variant:normal;font-weight:bold;font-stretch:normal;font-size:29.70630264px;line-height:1.25;font-family:'Droid Sans';-inkscape-font-specification:'Droid Sans Bold';letter-spacing:0px;word-spacing:0px;fill:#241c1c;fill-opacity:1;stroke:none;stroke-width:0.7426576"
         inkscape:connector-curvature="0" />
      <path
         d="m 161.71715,12.102374 q 0,2.45135 -0.5802,4.467549 -0.5657,2.016199 -1.74061,3.452197 -1.1749,1.435998 -2.97353,2.21927 -1.78412,0.783272 -4.22096,0.783272 -2.43685,0 -4.23547,-0.783272 -1.78412,-0.783272 -2.95903,-2.21927 -1.1604,-1.435998 -1.7406,-3.452197 -0.5657,-2.030704 -0.5657,-4.49656 0,-2.4658548 0.5657,-4.467549 0.5802,-2.0161993 1.75511,-3.4376923 1.17491,-1.4214929 2.95902,-2.1902595 1.79863,-0.7832717 4.24998,-0.7832717 2.43684,0 4.22096,0.7832717 1.78412,0.7687666 2.94452,2.2047646 1.17491,1.421493 1.74061,3.4376922 0.5802,2.0016942 0.5802,4.482055 z m -14.38899,0 q 0,1.668078 0.2901,3.002541 0.2901,1.319958 0.88481,2.24828 0.60921,0.913817 1.52302,1.406988 0.91382,0.493171 2.17576,0.493171 1.29095,0 2.20476,-0.493171 0.92832,-0.493171 1.50853,-1.406988 0.5947,-0.928322 0.8703,-2.24828 0.2901,-1.334463 0.2901,-3.002541 0,-1.668079 -0.2901,-2.9880368 -0.2756,-1.3344628 -0.8703,-2.2627848 -0.58021,-0.928322 -1.49402,-1.421493 -0.91382,-0.493171 -2.19026,-0.493171 -1.26194,0 -2.19026,0.493171 -0.92832,0.493171 -1.53753,1.421493 -0.59471,0.928322 -0.88481,2.2627848 -0.2901,1.3199578 -0.2901,2.9880368 z"
         style="font-style:normal;font-variant:normal;font-weight:bold;font-stretch:normal;font-size:29.70630264px;line-height:1.25;font-family:'Droid Sans';-inkscape-font-specification:'Droid Sans Bold';letter-spacing:0px;word-spacing:0px;fill:#241c1c;fill-opacity:1;stroke:none;stroke-width:0.74265754"
         id="path1036"
         inkscape:connector-curvature="0" />
      <circle
         r="4.6675196"
         cy="17.037252"
         cx="123.61184"
         id="path1053"
         style="opacity:1;fill:#800080;fill-opacity:1;stroke:none;stroke-width:3.61911225;stroke-linecap:round;stroke-linejoin:round;stroke-miterlimit:4;stroke-dasharray:none;stroke-dashoffset:0;stroke-opacity:1;paint-order:normal" />
    </g>
  </g>
</svg>
